
<svg xmlns="http://www.w3.org/2000/svg" version="1.1" xmlns:xlink="http://www.w3.org/1999/xlink" preserveAspectRatio="none" x="0px" y="0px" width="600px" height="600px" viewBox="0 0 600 600">
<defs>
<image id="_b79268af_8899_4b38_90a5_9e9c9fe69fa7_jpg" x="0" y="0" width="1024" height="1024" xlink:href="./images/_b79268af_8899_4b38_90a5_9e9c9fe69fa7_jpg.jpg"/>

<path id="Layer0_0_1_STROKES" stroke="#8A26E1" stroke-width="32" stroke-linejoin="round" stroke-linecap="round" fill="none" d="
M 442.55 112.3
L 499.7 112.3 499.7 318.95
M 151.55 112.3
L 83.55 112.3 83.55 318.95"/>

<path id="Layer0_0_2_STROKES" stroke="#FFFFFF" stroke-width="32" stroke-linejoin="round" stroke-linecap="round" fill="none" d="
M 400.85 234.15
Q 440.2 158.2 339.25 131.3 339.5 131.7 339.85 132.15 358.2 157.65 358.2 193.8 358.2 230.05 339.85 255.5 321.55 281.05 295.7 281.05 269.9 281.05 251.5 255.5 233.25 230.05 233.25 193.8 233.25 157.65 251.5 132.15 269.9 106.65 295.7 106.65 321.15 106.65 339.25 131.3
M 94.4 463.15
L 494.4 463.15
Q 514.2 346.65 388.2 305.45
L 298.35 384.3 203.25 291.8
Q 83.9 339.65 94.4 463.15 Z"/>
</defs>

<g transform="matrix( 1, 0, 0, 1, -1133,-423) ">
<use xlink:href="#_b79268af_8899_4b38_90a5_9e9c9fe69fa7_jpg"/>
</g>

<g transform="matrix( 1, 0, 0, 1, 0,0) ">
<use xlink:href="#Layer0_0_1_STROKES"/>

<use xlink:href="#Layer0_0_2_STROKES"/>
</g>
</svg>
