
<svg xmlns="http://www.w3.org/2000/svg" version="1.1" xmlns:xlink="http://www.w3.org/1999/xlink" preserveAspectRatio="none" x="0px" y="0px" width="600px" height="600px" viewBox="0 0 600 600">
<defs>
<image id="_b79268af_8899_4b38_90a5_9e9c9fe69fa7_jpg" x="0" y="0" width="1024" height="1024" xlink:href="./images/_b79268af_8899_4b38_90a5_9e9c9fe69fa7_jpg.jpg"/>

<path id="Layer2_0_1_STROKES" stroke="#8A26E1" stroke-width="24" stroke-linejoin="round" stroke-linecap="round" fill="none" d="
M 98.9 127.1
L 98.9 52.4 503.85 52.4 503.85 257.4
M 98.9 174.8
L 98.9 562.5 416.2 562.5 416.2 487.9 500.3 487.9 500.3 327.35
M 500.3 487.9
L 416.2 562.5"/>

<path id="Layer2_0_2_STROKES" stroke="#FFFFFF" stroke-width="24" stroke-linejoin="round" stroke-linecap="round" fill="none" d="
M 328.1 105.85
L 439.35 105.85
M 398.05 183.85
L 435.75 183.85 435.75 304.8
M 342.4 231.55
Q 342.4 252.75 330.3 267.65 318.2 282.6 301.15 282.6 284.1 282.6 272 267.65 259.9 252.75 259.9 231.55 259.9 210.4 272 195.45 284.1 180.55 301.15 180.55 318.2 180.55 330.3 195.45 342.4 210.4 342.4 231.55 Z
M 168.3 389.2
L 432.25 389.2
Q 445.35 321 362.2 296.9
L 302.85 343.05 240.1 288.9
Q 161.35 316.9 168.3 389.2 Z
M 206 183.85
L 161.15 183.85 161.15 304.8
M 161.15 104.25
L 195.25 104.25
M 168.3 492.7
L 371.2 492.7
M 164.75 445
L 434 445"/>
</defs>

<g transform="matrix( 1, 0, 0, 1, -1133,-423) ">
<use xlink:href="#_b79268af_8899_4b38_90a5_9e9c9fe69fa7_jpg"/>
</g>

<g transform="matrix( 1, 0, 0, 1, 0,0) ">
<use xlink:href="#Layer2_0_1_STROKES"/>

<use xlink:href="#Layer2_0_2_STROKES"/>
</g>
</svg>
