
<svg xmlns="http://www.w3.org/2000/svg" version="1.1" xmlns:xlink="http://www.w3.org/1999/xlink" preserveAspectRatio="none" x="0px" y="0px" width="572px" height="536px" viewBox="0 0 572 536">
<defs>
<g id="Layer0_0_FILL">
<path fill="#8A26E1" stroke="none" d="
M 431.15 518.8
Q 432.95 517 432.95 514.5 432.95 512 431.15 510.1 429.35 508.3 426.75 508.3 424.25 508.3 422.45 510.1 421.1 511.45 420.7 513.3
L 420.7 515.6
Q 421.1 517.5 422.45 518.8 424.25 520.6 426.75 520.6 429.35 520.6 431.15 518.8
M 461.4 518.8
Q 463.2 517 463.2 514.5 463.2 512 461.4 510.1 459.6 508.3 457 508.3 454.5 508.3 452.7 510.1 450.9 511.85 450.9 514.5 450.9 517.15 452.7 518.8 454.5 520.6 457 520.6 459.6 520.6 461.4 518.8
M 338.7 518.8
Q 340.5 517.15 340.5 514.5 340.5 511.85 338.7 510.1 337 508.3 334.4 508.3 331.8 508.3 330 510.1 328.2 511.9 328.2 514.5 328.2 517.1 330 518.8 331.8 520.6 334.4 520.6 337 520.6 338.7 518.8
M 370.65 518.8
Q 372.45 517 372.45 514.5 372.45 512 370.65 510.1 368.85 508.3 366.25 508.3 363.75 508.3 361.95 510.1 360.15 511.85 360.15 514.5 360.15 517.15 361.95 518.8 363.75 520.6 366.25 520.6 368.85 520.6 370.65 518.8
M 392.2 510.1
Q 390.4 511.85 390.4 514.5 390.4 517.15 392.2 518.8 394 520.6 396.5 520.6 399.1 520.6 400.9 518.8 402.7 517 402.7 514.5 402.7 512 400.9 510.1 399.1 508.3 396.5 508.3 394 508.3 392.2 510.1
M 400.9 489.2
Q 402.7 487.3 402.7 484.8 402.7 482.3 400.9 480.5 399.15 478.7 396.5 478.7 393.95 478.7 392.2 480.5 390.4 482.15 390.4 484.8 390.4 487.45 392.2 489.2 394 491 396.5 491 399.1 491 400.9 489.2
M 400.9 450.85
Q 399.1 449.05 396.5 449.05 394 449.05 392.2 450.85 390.4 452.6 390.4 455.25 390.4 457.9 392.2 459.55 394 461.35 396.5 461.35 399.1 461.35 400.9 459.55 402.7 457.75 402.7 455.25 402.7 452.75 400.9 450.85
M 360.15 484.8
Q 360.15 487.45 361.95 489.2 363.75 491 366.25 491 368.85 491 370.65 489.2 372.45 487.3 372.45 484.8 372.45 482.3 370.65 480.5 368.9 478.7 366.25 478.7 363.7 478.7 361.95 480.5 360.15 482.15 360.15 484.8
M 334.4 490.95
Q 336.95 490.95 338.7 489.1 340.5 487.35 340.5 484.75 340.5 482.2 338.7 480.45 336.95 478.6 334.4 478.6 331.85 478.6 330 480.45 328.2 482.25 328.2 484.75 328.2 487.3 330 489.1 331.85 490.95 334.4 490.95
M 340.5 455.2
Q 340.5 452.55 338.7 450.8 336.9 449 334.4 449 331.9 449 330 450.8 328.2 452.6 328.2 455.2 328.2 457.7 330 459.5 331.75 461.3 334.4 461.3 337.05 461.3 338.7 459.5 340.5 457.75 340.5 455.2
M 360.15 455.25
Q 360.15 457.9 361.95 459.55 363.75 461.35 366.25 461.35 368.85 461.35 370.65 459.55 372.45 457.75 372.45 455.25 372.45 452.75 370.65 450.85 368.85 449.05 366.25 449.05 363.75 449.05 361.95 450.85 360.15 452.6 360.15 455.25
M 392.2 421.25
Q 390.4 423 390.4 425.65 390.4 428.2 392.2 430 394.05 431.75 396.5 431.75 399.1 431.75 400.9 430 402.7 428.05 402.7 425.65 402.7 423.15 400.9 421.25 399.1 419.5 396.5 419.5 394.05 419.5 392.2 421.25
M 370.65 430
Q 372.45 428.05 372.45 425.65 372.45 423.15 370.65 421.25 368.85 419.5 366.25 419.5 363.8 419.5 361.95 421.25 360.15 423 360.15 425.65 360.15 428.2 361.95 430 363.8 431.75 366.25 431.75 368.85 431.75 370.65 430
M 457 491
Q 459.6 491 461.4 489.2 463.2 487.3 463.2 484.8 463.2 482.3 461.4 480.5 459.65 478.7 457 478.7 454.45 478.7 452.7 480.5 450.9 482.15 450.9 484.8 450.9 487.45 452.7 489.2 454.5 491 457 491
M 452.7 450.85
Q 450.9 452.6 450.9 455.25 450.9 457.9 452.7 459.55 454.5 461.35 457 461.35 459.6 461.35 461.4 459.55 463.2 457.75 463.2 455.25 463.2 452.75 461.4 450.85 459.6 449.05 457 449.05 454.5 449.05 452.7 450.85
M 420.7 483.7
L 420.7 486
Q 421.1 487.85 422.45 489.2 424.25 491 426.75 491 429.35 491 431.15 489.2 432.95 487.3 432.95 484.8 432.95 482.3 431.15 480.5 429.4 478.7 426.75 478.7 424.2 478.7 422.45 480.5 421.1 481.8 420.7 483.7
M 431.15 450.85
Q 429.35 449.05 426.75 449.05 424.25 449.05 422.45 450.85 421.1 452.2 420.7 454.05
L 420.7 456.35
Q 421.1 458.25 422.45 459.55 424.25 461.35 426.75 461.35 429.35 461.35 431.15 459.55 432.95 457.75 432.95 455.25 432.95 452.75 431.15 450.85
M 420.65 425.65
Q 420.65 428.2 422.45 430 424.3 431.75 426.75 431.75 429.35 431.75 431.15 430 432.95 428.05 432.95 425.65 432.95 423.15 431.15 421.25 429.35 419.5 426.75 419.5 424.3 419.5 422.45 421.25 420.65 423 420.65 425.65
M 452.7 421.25
Q 450.9 423 450.9 425.65 450.9 428.2 452.7 430 454.55 431.75 457 431.75 459.6 431.75 461.4 430 463.2 428.05 463.2 425.65 463.2 423.15 461.4 421.25 459.6 419.5 457 419.5 454.55 419.5 452.7 421.25
M 493.45 514.5
Q 493.45 512 491.65 510.1 489.85 508.3 487.25 508.3 484.75 508.3 482.95 510.1 481.15 511.85 481.15 514.5 481.15 517.15 482.95 518.8 484.75 520.6 487.25 520.6 489.85 520.6 491.65 518.8 493.45 517 493.45 514.5
M 513.2 510.1
Q 511.4 511.85 511.4 514.5 511.4 517.15 513.2 518.8 515 520.6 517.5 520.6 520.1 520.6 521.9 518.8 523.7 517 523.7 514.5 523.7 512 521.9 510.1 520.1 508.3 517.5 508.3 515 508.3 513.2 510.1
M 543.5 518.8
Q 545.3 520.6 547.9 520.6 550.5 520.6 552.2 518.8 554 517.15 554 514.5 554 511.85 552.2 510.1 550.5 508.3 547.9 508.3 545.3 508.3 543.5 510.1 541.7 511.9 541.7 514.5 541.7 517.1 543.5 518.8
M 541.7 484.8
Q 541.7 487.4 543.5 489.2 545.3 491 547.9 491 550.5 491 552.2 489.2 554 487.45 554 484.8 554 482.15 552.2 480.5 550.55 478.7 547.9 478.7 545.25 478.7 543.5 480.5 541.7 482.25 541.7 484.8
M 552.2 450.85
Q 550.5 449.05 547.9 449.05 545.3 449.05 543.5 450.85 541.7 452.65 541.7 455.25 541.7 457.85 543.5 459.55 545.3 461.35 547.9 461.35 550.5 461.35 552.2 459.55 554 457.9 554 455.25 554 452.6 552.2 450.85
M 517.5 491
Q 520.1 491 521.9 489.2 523.7 487.3 523.7 484.8 523.7 482.3 521.9 480.5 520.15 478.7 517.5 478.7 514.95 478.7 513.2 480.5 511.4 482.15 511.4 484.8 511.4 487.45 513.2 489.2 515 491 517.5 491
M 487.25 491
Q 489.85 491 491.65 489.2 493.45 487.3 493.45 484.8 493.45 482.3 491.65 480.5 489.9 478.7 487.25 478.7 484.7 478.7 482.95 480.5 481.15 482.15 481.15 484.8 481.15 487.45 482.95 489.2 484.75 491 487.25 491
M 493.45 455.25
Q 493.45 452.75 491.65 450.85 489.85 449.05 487.25 449.05 484.75 449.05 482.95 450.85 481.15 452.6 481.15 455.25 481.15 457.9 482.95 459.55 484.75 461.35 487.25 461.35 489.85 461.35 491.65 459.55 493.45 457.75 493.45 455.25
M 521.9 450.85
Q 520.1 449.05 517.5 449.05 515 449.05 513.2 450.85 511.4 452.6 511.4 455.25 511.4 457.9 513.2 459.55 515 461.35 517.5 461.35 520.1 461.35 521.9 459.55 523.7 457.75 523.7 455.25 523.7 452.75 521.9 450.85
M 513.2 421.25
Q 511.4 423 511.4 425.65 511.4 428.2 513.2 430 515.05 431.75 517.5 431.75 520.1 431.75 521.9 430 523.7 428.05 523.7 425.65 523.7 423.15 521.9 421.25 520.1 419.5 517.5 419.5 515.05 419.5 513.2 421.25
M 493.45 425.65
Q 493.45 423.15 491.65 421.25 489.85 419.5 487.25 419.5 484.8 419.5 482.95 421.25 481.15 423 481.15 425.65 481.15 428.2 482.95 430 484.8 431.75 487.25 431.75 489.85 431.75 491.65 430 493.45 428.05 493.45 425.65
M 541.7 425.65
Q 541.7 428.15 543.5 430 545.35 431.75 547.9 431.75 550.45 431.75 552.2 430 554 428.2 554 425.65 554 423 552.2 421.25 550.45 419.5 547.9 419.5 545.35 419.5 543.5 421.25 541.7 423.05 541.7 425.65
M 279.45 519.5
Q 281.25 517.75 281.25 515.2 281.25 512.55 279.45 510.8 277.65 509 275.15 509 272.65 509 270.75 510.8 268.95 512.6 268.95 515.2 268.95 517.7 270.75 519.5 272.5 521.3 275.15 521.3 277.8 521.3 279.45 519.5
M 299.75 518.8
Q 301.55 520.6 304.15 520.6 306.75 520.6 308.45 518.8 310.25 517.15 310.25 514.5 310.25 511.85 308.45 510.1 306.75 508.3 304.15 508.3 301.55 508.3 299.75 510.1 297.95 511.9 297.95 514.5 297.95 517.1 299.75 518.8
M 240.5 510.8
Q 238.7 512.6 238.7 515.2 238.7 517.7 240.5 519.5 242.25 521.3 244.9 521.3 247.55 521.3 249.2 519.5 251 517.75 251 515.2 251 512.55 249.2 510.8 247.4 509 244.9 509 242.4 509 240.5 510.8
M 297.95 484.75
Q 297.95 487.3 299.75 489.1 301.6 490.95 304.15 490.95 306.7 490.95 308.45 489.1 310.25 487.35 310.25 484.75 310.25 482.2 308.45 480.45 306.7 478.6 304.15 478.6 301.6 478.6 299.75 480.45 297.95 482.25 297.95 484.75
M 308.45 450.8
Q 306.65 449 304.15 449 301.65 449 299.75 450.8 297.95 452.6 297.95 455.2 297.95 457.7 299.75 459.5 301.5 461.3 304.15 461.3 306.8 461.3 308.45 459.5 310.25 457.75 310.25 455.2 310.25 452.55 308.45 450.8
M 517.5 389.9
Q 514.95 389.9 513.2 391.65 511.4 393.45 511.4 396 511.4 398.6 513.2 400.4 514.95 402.15 517.5 402.15 520.15 402.15 521.9 400.4 523.7 398.45 523.7 396 523.7 393.6 521.9 391.65 520.15 389.9 517.5 389.9
M 491.65 391.65
Q 489.9 389.9 487.25 389.9 484.7 389.9 482.95 391.65 481.15 393.45 481.15 396 481.15 398.6 482.95 400.4 484.7 402.15 487.25 402.15 489.9 402.15 491.65 400.4 493.45 398.45 493.45 396 493.45 393.6 491.65 391.65
M 517.5 360.25
Q 515.1 360.25 513.2 362.05 511.4 363.8 511.4 366.4 511.4 369.1 513.2 370.75 515 372.55 517.5 372.55 520.1 372.55 521.9 370.75 523.7 368.95 523.7 366.4 523.7 363.95 521.9 362.05 520 360.25 517.5 360.25
M 461.4 391.65
Q 459.65 389.9 457 389.9 454.45 389.9 452.7 391.65 450.9 393.45 450.9 396 450.9 398.6 452.7 400.4 454.45 402.15 457 402.15 459.65 402.15 461.4 400.4 463.2 398.45 463.2 396 463.2 393.6 461.4 391.65
M 461.4 370.75
Q 463.2 368.95 463.2 366.4 463.2 363.95 461.4 362.05 459.5 360.25 457 360.25 454.6 360.25 452.7 362.05 450.9 363.8 450.9 366.4 450.9 369.1 452.7 370.75 454.5 372.55 457 372.55 459.6 372.55 461.4 370.75
M 481.15 366.4
Q 481.15 369.1 482.95 370.75 484.75 372.55 487.25 372.55 489.85 372.55 491.65 370.75 493.45 368.95 493.45 366.4 493.45 363.95 491.65 362.05 489.75 360.25 487.25 360.25 484.85 360.25 482.95 362.05 481.15 363.8 481.15 366.4
M 431.15 391.65
Q 429.4 389.9 426.75 389.9 424.2 389.9 422.45 391.65 420.65 393.45 420.65 396 420.65 398.6 422.45 400.4 424.2 402.15 426.75 402.15 429.4 402.15 431.15 400.4 432.95 398.45 432.95 396 432.95 393.6 431.15 391.65
M 431.15 370.75
Q 432.95 368.95 432.95 366.4 432.95 363.95 431.15 362.05 429.25 360.25 426.75 360.25 424.35 360.25 422.45 362.05 420.65 363.8 420.65 366.4 420.65 369.1 422.45 370.75 424.25 372.55 426.75 372.55 429.35 372.55 431.15 370.75 Z"/>

<path fill="#ED485F" fill-opacity="0.4980392156862745" stroke="none" d="
M -513.9 11.85
Q -515.65 10 -518.2 10 -520.75 10 -522.6 11.85 -524.4 13.6 -524.4 16.2 -524.4 18.7 -522.6 20.5 -520.75 22.35 -518.2 22.35 -515.65 22.35 -513.9 20.5 -512.1 18.7 -512.1 16.2 -512.1 13.6 -513.9 11.85
M -481.85 16.2
Q -481.85 13.6 -483.65 11.85 -485.4 10 -487.95 10 -490.5 10 -492.35 11.85 -494.15 13.6 -494.15 16.2 -494.15 18.7 -492.35 20.5 -490.5 22.35 -487.95 22.35 -485.4 22.35 -483.65 20.5 -481.85 18.7 -481.85 16.2
M -463.9 16.2
Q -463.9 18.7 -462.1 20.5 -460.25 22.35 -457.7 22.35 -455.15 22.35 -453.4 20.5 -451.6 18.7 -451.6 16.2 -451.6 13.6 -453.4 11.85 -455.15 10 -457.7 10 -460.25 10 -462.1 11.85 -463.9 13.6 -463.9 16.2
M -427.35 22.35
Q -424.8 22.35 -423.05 20.5 -421.2 18.75 -421.2 16.2 -421.2 13.55 -423.05 11.85 -424.8 10 -427.35 10 -430 10 -431.7 11.85 -433.55 13.55 -433.55 16.2 -433.55 18.75 -431.7 20.5 -430 22.35 -427.35 22.35
M -433.55 -13.5
Q -433.55 -10.9 -431.7 -9.15 -429.95 -7.3 -427.35 -7.3 -424.9 -7.3 -423.05 -9.15 -421.2 -10.9 -421.2 -13.5 -421.2 -16 -423.05 -17.8 -424.9 -19.65 -427.35 -19.65 -429.95 -19.65 -431.7 -17.8 -433.55 -16 -433.55 -13.5
M -421.2 -43.1
Q -421.2 -45.65 -423.05 -47.45 -424.95 -49.25 -427.35 -49.25 -429.9 -49.25 -431.7 -47.45 -433.55 -45.65 -433.55 -43.1 -433.55 -40.45 -431.7 -38.75 -429.95 -36.95 -427.35 -36.95 -424.85 -36.95 -423.05 -38.75 -421.2 -40.45 -421.2 -43.1
M -463.9 -13.5
Q -463.9 -10.95 -462.1 -9.15 -460.15 -7.3 -457.7 -7.3 -455.25 -7.3 -453.4 -9.15 -451.6 -10.95 -451.6 -13.5 -451.6 -16 -453.4 -17.8 -455.25 -19.65 -457.7 -19.65 -460.15 -19.65 -462.1 -17.8 -463.9 -16 -463.9 -13.5
M -453.4 -47.45
Q -455.3 -49.25 -457.7 -49.25 -460.15 -49.25 -462.1 -47.45 -463.9 -45.65 -463.9 -43.1 -463.9 -40.45 -462.1 -38.75 -460.2 -36.95 -457.7 -36.95 -455.2 -36.95 -453.4 -38.75 -451.6 -40.45 -451.6 -43.1 -451.6 -45.65 -453.4 -47.45
M -494.15 -13.5
Q -494.15 -10.95 -492.35 -9.15 -490.4 -7.3 -487.95 -7.3 -485.5 -7.3 -483.65 -9.15 -481.85 -10.95 -481.85 -13.5 -481.85 -16 -483.65 -17.8 -485.5 -19.65 -487.95 -19.65 -490.4 -19.65 -492.35 -17.8 -494.15 -16 -494.15 -13.5
M -513.9 -9.15
Q -512.1 -10.95 -512.1 -13.5 -512.1 -16 -513.9 -17.8 -515.75 -19.65 -518.2 -19.65 -520.65 -19.65 -522.6 -17.8 -524.4 -16 -524.4 -13.5 -524.4 -10.95 -522.6 -9.15 -520.65 -7.3 -518.2 -7.3 -515.75 -7.3 -513.9 -9.15
M -524.4 -43.1
Q -524.4 -40.45 -522.6 -38.75 -520.7 -36.95 -518.2 -36.95 -515.7 -36.95 -513.9 -38.75 -512.1 -40.45 -512.1 -43.1 -512.1 -45.65 -513.9 -47.45 -515.8 -49.25 -518.2 -49.25 -520.65 -49.25 -522.6 -47.45 -524.4 -45.65 -524.4 -43.1
M -487.95 -49.25
Q -490.4 -49.25 -492.35 -47.45 -494.15 -45.65 -494.15 -43.1 -494.15 -40.45 -492.35 -38.75 -490.45 -36.95 -487.95 -36.95 -485.45 -36.95 -483.65 -38.75 -481.85 -40.45 -481.85 -43.1 -481.85 -45.65 -483.65 -47.45 -485.55 -49.25 -487.95 -49.25 Z"/>
</g>

<path id="Layer0_0_1_STROKES" stroke="#ED485F" stroke-opacity="0.48627450980392156" stroke-width="11" stroke-linejoin="round" stroke-linecap="round" fill="none" d="
M -48.1 -465.2
L -57 -456.3 -48.15 -447.45
M -65.95 -465.2
L -57 -456.3 -65.9 -447.4"/>

<path id="Layer0_0_2_STROKES" stroke="#8A26E1" stroke-width="11" stroke-linejoin="round" stroke-linecap="round" fill="none" d="
M 505.7 79.6
L 505.65 92.15 518.3 92.2
M 505.75 104.8
L 505.65 92.15 493.15 92.2
M 111.15 442.2
L 98.55 442.2 98.6 454.8
M 85.95 442.2
L 98.55 442.2 98.55 429.6"/>
</defs>

<g transform="matrix( 1, 0, 0, 1, 0,0) ">
<use xlink:href="#Layer0_0_FILL"/>

<use xlink:href="#Layer0_0_1_STROKES"/>

<use xlink:href="#Layer0_0_2_STROKES"/>
</g>
</svg>
