
<svg xmlns="http://www.w3.org/2000/svg" version="1.1" xmlns:xlink="http://www.w3.org/1999/xlink" preserveAspectRatio="none" x="0px" y="0px" width="572px" height="536px" viewBox="0 0 572 536">
<defs>
<g id="Layer0_1_MEMBER_0_FILL">
<path fill="#ED485F" fill-opacity="0.4980392156862745" stroke="none" d="
M 744.75 580.55
L 744.75 582.85
Q 745.15 584.75 746.5 586.05 748.3 587.85 750.8 587.85 753.4 587.85 755.2 586.05 757 584.25 757 581.75 757 579.25 755.2 577.35 753.4 575.55 750.8 575.55 748.3 575.55 746.5 577.35 745.15 578.7 744.75 580.55
M 750.8 558.25
Q 753.4 558.25 755.2 556.45 757 554.55 757 552.05 757 549.55 755.2 547.75 753.45 545.95 750.8 545.95 748.25 545.95 746.5 547.75 745.15 549.05 744.75 550.95
L 744.75 553.25
Q 745.15 555.1 746.5 556.45 748.3 558.25 750.8 558.25
M 755.2 518.1
Q 753.4 516.3 750.8 516.3 748.3 516.3 746.5 518.1 745.15 519.45 744.75 521.3
L 744.75 523.6
Q 745.15 525.5 746.5 526.8 748.3 528.6 750.8 528.6 753.4 528.6 755.2 526.8 757 525 757 522.5 757 520 755.2 518.1
M -200.35 83.45
Q -200.35 85.95 -198.55 87.75 -196.7 89.6 -194.15 89.6 -191.6 89.6 -189.85 87.75 -188.05 85.95 -188.05 83.45 -188.05 80.85 -189.85 79.1 -191.6 77.25 -194.15 77.25 -196.7 77.25 -198.55 79.1 -200.35 80.85 -200.35 83.45
M -194.15 47.6
Q -196.6 47.6 -198.55 49.45 -200.35 51.25 -200.35 53.75 -200.35 56.3 -198.55 58.1 -196.6 59.95 -194.15 59.95 -191.7 59.95 -189.85 58.1 -188.05 56.3 -188.05 53.75 -188.05 51.25 -189.85 49.45 -191.7 47.6 -194.15 47.6
M -188.05 24.15
Q -188.05 21.6 -189.85 19.8 -191.75 18 -194.15 18 -196.6 18 -198.55 19.8 -200.35 21.6 -200.35 24.15 -200.35 26.8 -198.55 28.5 -196.65 30.3 -194.15 30.3 -191.65 30.3 -189.85 28.5 -188.05 26.8 -188.05 24.15
M -103.3 77.25
Q -105.95 77.25 -107.65 79.1 -109.5 80.8 -109.5 83.45 -109.5 86 -107.65 87.75 -105.95 89.6 -103.3 89.6 -100.75 89.6 -99 87.75 -97.15 86 -97.15 83.45 -97.15 80.8 -99 79.1 -100.75 77.25 -103.3 77.25
M -133.65 77.25
Q -136.2 77.25 -138.05 79.1 -139.85 80.85 -139.85 83.45 -139.85 85.95 -138.05 87.75 -136.2 89.6 -133.65 89.6 -131.1 89.6 -129.35 87.75 -127.55 85.95 -127.55 83.45 -127.55 80.85 -129.35 79.1 -131.1 77.25 -133.65 77.25
M -159.6 87.75
Q -157.8 85.95 -157.8 83.45 -157.8 80.85 -159.6 79.1 -161.35 77.25 -163.9 77.25 -166.45 77.25 -168.3 79.1 -170.1 80.85 -170.1 83.45 -170.1 85.95 -168.3 87.75 -166.45 89.6 -163.9 89.6 -161.35 89.6 -159.6 87.75
M -159.6 58.1
Q -157.8 56.3 -157.8 53.75 -157.8 51.25 -159.6 49.45 -161.45 47.6 -163.9 47.6 -166.35 47.6 -168.3 49.45 -170.1 51.25 -170.1 53.75 -170.1 56.3 -168.3 58.1 -166.35 59.95 -163.9 59.95 -161.45 59.95 -159.6 58.1
M -133.65 47.6
Q -136.1 47.6 -138.05 49.45 -139.85 51.25 -139.85 53.75 -139.85 56.3 -138.05 58.1 -136.1 59.95 -133.65 59.95 -131.2 59.95 -129.35 58.1 -127.55 56.3 -127.55 53.75 -127.55 51.25 -129.35 49.45 -131.2 47.6 -133.65 47.6
M -157.8 24.15
Q -157.8 21.6 -159.6 19.8 -161.5 18 -163.9 18 -166.35 18 -168.3 19.8 -170.1 21.6 -170.1 24.15 -170.1 26.8 -168.3 28.5 -166.4 30.3 -163.9 30.3 -161.4 30.3 -159.6 28.5 -157.8 26.8 -157.8 24.15
M -129.35 19.8
Q -131.25 18 -133.65 18 -136.1 18 -138.05 19.8 -139.85 21.6 -139.85 24.15 -139.85 26.8 -138.05 28.5 -136.15 30.3 -133.65 30.3 -131.15 30.3 -129.35 28.5 -127.55 26.8 -127.55 24.15 -127.55 21.6 -129.35 19.8
M -103.3 47.6
Q -105.9 47.6 -107.65 49.45 -109.5 51.25 -109.5 53.75 -109.5 56.35 -107.65 58.1 -105.9 59.95 -103.3 59.95 -100.85 59.95 -99 58.1 -97.15 56.35 -97.15 53.75 -97.15 51.25 -99 49.45 -100.85 47.6 -103.3 47.6
M -97.15 24.15
Q -97.15 21.6 -99 19.8 -100.9 18 -103.3 18 -105.85 18 -107.65 19.8 -109.5 21.6 -109.5 24.15 -109.5 26.8 -107.65 28.5 -105.9 30.3 -103.3 30.3 -100.8 30.3 -99 28.5 -97.15 26.8 -97.15 24.15
M 623.8 577.35
Q 622 579.15 622 581.75 622 584.35 623.8 586.05 625.6 587.85 628.2 587.85 630.8 587.85 632.5 586.05 634.3 584.4 634.3 581.75 634.3 579.1 632.5 577.35 630.8 575.55 628.2 575.55 625.6 575.55 623.8 577.35
M 632.5 556.35
Q 634.3 554.6 634.3 552 634.3 549.45 632.5 547.7 630.75 545.85 628.2 545.85 625.65 545.85 623.8 547.7 622 549.5 622 552 622 554.55 623.8 556.35 625.65 558.2 628.2 558.2 630.75 558.2 632.5 556.35
M 599.2 576.25
Q 596.7 576.25 594.8 578.05 593 579.85 593 582.45 593 584.95 594.8 586.75 596.55 588.55 599.2 588.55 601.85 588.55 603.5 586.75 605.3 585 605.3 582.45 605.3 579.8 603.5 578.05 601.7 576.25 599.2 576.25
M 622 522.45
Q 622 524.95 623.8 526.75 625.55 528.55 628.2 528.55 630.85 528.55 632.5 526.75 634.3 525 634.3 522.45 634.3 519.8 632.5 518.05 630.7 516.25 628.2 516.25 625.7 516.25 623.8 518.05 622 519.85 622 522.45
M 562.75 582.45
Q 562.75 584.95 564.55 586.75 566.3 588.55 568.95 588.55 571.6 588.55 573.25 586.75 575.05 585 575.05 582.45 575.05 579.8 573.25 578.05 571.45 576.25 568.95 576.25 566.45 576.25 564.55 578.05 562.75 579.85 562.75 582.45
M 785.45 586.05
Q 787.25 584.25 787.25 581.75 787.25 579.25 785.45 577.35 783.65 575.55 781.05 575.55 778.55 575.55 776.75 577.35 774.95 579.1 774.95 581.75 774.95 584.4 776.75 586.05 778.55 587.85 781.05 587.85 783.65 587.85 785.45 586.05
M 781.05 558.25
Q 783.65 558.25 785.45 556.45 787.25 554.55 787.25 552.05 787.25 549.55 785.45 547.75 783.7 545.95 781.05 545.95 778.5 545.95 776.75 547.75 774.95 549.4 774.95 552.05 774.95 554.7 776.75 556.45 778.55 558.25 781.05 558.25
M 785.45 518.1
Q 783.65 516.3 781.05 516.3 778.55 516.3 776.75 518.1 774.95 519.85 774.95 522.5 774.95 525.15 776.75 526.8 778.55 528.6 781.05 528.6 783.65 528.6 785.45 526.8 787.25 525 787.25 522.5 787.25 520 785.45 518.1
M 720.55 575.55
Q 718.05 575.55 716.25 577.35 714.45 579.1 714.45 581.75 714.45 584.4 716.25 586.05 718.05 587.85 720.55 587.85 723.15 587.85 724.95 586.05 726.75 584.25 726.75 581.75 726.75 579.25 724.95 577.35 723.15 575.55 720.55 575.55
M 720.55 545.95
Q 718 545.95 716.25 547.75 714.45 549.4 714.45 552.05 714.45 554.7 716.25 556.45 718.05 558.25 720.55 558.25 723.15 558.25 724.95 556.45 726.75 554.55 726.75 552.05 726.75 549.55 724.95 547.75 723.2 545.95 720.55 545.95
M 686 577.35
Q 684.2 579.1 684.2 581.75 684.2 584.4 686 586.05 687.8 587.85 690.3 587.85 692.9 587.85 694.7 586.05 696.5 584.25 696.5 581.75 696.5 579.25 694.7 577.35 692.9 575.55 690.3 575.55 687.8 575.55 686 577.35
M 658.45 587.85
Q 661.05 587.85 662.75 586.05 664.55 584.4 664.55 581.75 664.55 579.1 662.75 577.35 661.05 575.55 658.45 575.55 655.85 575.55 654.05 577.35 652.25 579.15 652.25 581.75 652.25 584.35 654.05 586.05 655.85 587.85 658.45 587.85
M 658.45 558.2
Q 661 558.2 662.75 556.35 664.55 554.6 664.55 552 664.55 549.45 662.75 547.7 661 545.85 658.45 545.85 655.9 545.85 654.05 547.7 652.25 549.5 652.25 552 652.25 554.55 654.05 556.35 655.9 558.2 658.45 558.2
M 686 547.75
Q 684.2 549.4 684.2 552.05 684.2 554.7 686 556.45 687.8 558.25 690.3 558.25 692.9 558.25 694.7 556.45 696.5 554.55 696.5 552.05 696.5 549.55 694.7 547.75 692.95 545.95 690.3 545.95 687.75 545.95 686 547.75
M 662.75 518.05
Q 660.95 516.25 658.45 516.25 655.95 516.25 654.05 518.05 652.25 519.85 652.25 522.45 652.25 524.95 654.05 526.75 655.8 528.55 658.45 528.55 661.1 528.55 662.75 526.75 664.55 525 664.55 522.45 664.55 519.8 662.75 518.05
M 694.7 518.1
Q 692.9 516.3 690.3 516.3 687.8 516.3 686 518.1 684.2 519.85 684.2 522.5 684.2 525.15 686 526.8 687.8 528.6 690.3 528.6 692.9 528.6 694.7 526.8 696.5 525 696.5 522.5 696.5 520 694.7 518.1
M 724.95 518.1
Q 723.15 516.3 720.55 516.3 718.05 516.3 716.25 518.1 714.45 519.85 714.45 522.5 714.45 525.15 716.25 526.8 718.05 528.6 720.55 528.6 723.15 528.6 724.95 526.8 726.75 525 726.75 522.5 726.75 520 724.95 518.1
M 716.25 488.5
Q 714.45 490.25 714.45 492.9 714.45 495.45 716.25 497.25 718.1 499 720.55 499 723.15 499 724.95 497.25 726.75 495.3 726.75 492.9 726.75 490.4 724.95 488.5 723.15 486.75 720.55 486.75 718.1 486.75 716.25 488.5
M 686 488.5
Q 684.2 490.25 684.2 492.9 684.2 495.45 686 497.25 687.85 499 690.3 499 692.9 499 694.7 497.25 696.5 495.3 696.5 492.9 696.5 490.4 694.7 488.5 692.9 486.75 690.3 486.75 687.85 486.75 686 488.5
M 787.25 492.9
Q 787.25 490.4 785.45 488.5 783.65 486.75 781.05 486.75 778.6 486.75 776.75 488.5 774.95 490.25 774.95 492.9 774.95 495.45 776.75 497.25 778.6 499 781.05 499 783.65 499 785.45 497.25 787.25 495.3 787.25 492.9
M 787.25 463.25
Q 787.25 460.85 785.45 458.9 783.7 457.15 781.05 457.15 778.5 457.15 776.75 458.9 774.95 460.7 774.95 463.25 774.95 465.85 776.75 467.65 778.5 469.4 781.05 469.4 783.7 469.4 785.45 467.65 787.25 465.7 787.25 463.25
M 746.5 488.5
Q 744.7 490.25 744.7 492.9 744.7 495.45 746.5 497.25 748.35 499 750.8 499 753.4 499 755.2 497.25 757 495.3 757 492.9 757 490.4 755.2 488.5 753.4 486.75 750.8 486.75 748.35 486.75 746.5 488.5
M 750.8 469.4
Q 753.45 469.4 755.2 467.65 757 465.7 757 463.25 757 460.85 755.2 458.9 753.45 457.15 750.8 457.15 748.25 457.15 746.5 458.9 744.7 460.7 744.7 463.25 744.7 465.85 746.5 467.65 748.25 469.4 750.8 469.4
M 750.8 427.5
Q 748.4 427.5 746.5 429.3 744.7 431.05 744.7 433.65 744.7 436.35 746.5 438 748.3 439.8 750.8 439.8 753.4 439.8 755.2 438 757 436.2 757 433.65 757 431.2 755.2 429.3 753.3 427.5 750.8 427.5
M 785.45 438
Q 787.25 436.2 787.25 433.65 787.25 431.2 785.45 429.3 783.55 427.5 781.05 427.5 778.65 427.5 776.75 429.3 774.95 431.05 774.95 433.65 774.95 436.35 776.75 438 778.55 439.8 781.05 439.8 783.65 439.8 785.45 438
M 865.75 581.75
Q 865.75 584.35 867.55 586.05 869.35 587.85 871.95 587.85 874.55 587.85 876.25 586.05 878.05 584.4 878.05 581.75 878.05 579.1 876.25 577.35 874.55 575.55 871.95 575.55 869.35 575.55 867.55 577.35 865.75 579.15 865.75 581.75
M 876.25 556.45
Q 878.05 554.7 878.05 552.05 878.05 549.4 876.25 547.75 874.6 545.95 871.95 545.95 869.3 545.95 867.55 547.75 865.75 549.5 865.75 552.05 865.75 554.65 867.55 556.45 869.35 558.25 871.95 558.25 874.55 558.25 876.25 556.45
M 841.55 575.55
Q 839.05 575.55 837.25 577.35 835.45 579.1 835.45 581.75 835.45 584.4 837.25 586.05 839.05 587.85 841.55 587.85 844.15 587.85 845.95 586.05 847.75 584.25 847.75 581.75 847.75 579.25 845.95 577.35 844.15 575.55 841.55 575.55
M 817.5 581.75
Q 817.5 579.25 815.7 577.35 813.9 575.55 811.3 575.55 808.8 575.55 807 577.35 805.2 579.1 805.2 581.75 805.2 584.4 807 586.05 808.8 587.85 811.3 587.85 813.9 587.85 815.7 586.05 817.5 584.25 817.5 581.75
M 811.3 558.25
Q 813.9 558.25 815.7 556.45 817.5 554.55 817.5 552.05 817.5 549.55 815.7 547.75 813.95 545.95 811.3 545.95 808.75 545.95 807 547.75 805.2 549.4 805.2 552.05 805.2 554.7 807 556.45 808.8 558.25 811.3 558.25
M 837.25 547.75
Q 835.45 549.4 835.45 552.05 835.45 554.7 837.25 556.45 839.05 558.25 841.55 558.25 844.15 558.25 845.95 556.45 847.75 554.55 847.75 552.05 847.75 549.55 845.95 547.75 844.2 545.95 841.55 545.95 839 545.95 837.25 547.75
M 815.7 518.1
Q 813.9 516.3 811.3 516.3 808.8 516.3 807 518.1 805.2 519.85 805.2 522.5 805.2 525.15 807 526.8 808.8 528.6 811.3 528.6 813.9 528.6 815.7 526.8 817.5 525 817.5 522.5 817.5 520 815.7 518.1
M 845.95 518.1
Q 844.15 516.3 841.55 516.3 839.05 516.3 837.25 518.1 835.45 519.85 835.45 522.5 835.45 525.15 837.25 526.8 839.05 528.6 841.55 528.6 844.15 528.6 845.95 526.8 847.75 525 847.75 522.5 847.75 520 845.95 518.1
M 876.25 518.1
Q 874.55 516.3 871.95 516.3 869.35 516.3 867.55 518.1 865.75 519.9 865.75 522.5 865.75 525.1 867.55 526.8 869.35 528.6 871.95 528.6 874.55 528.6 876.25 526.8 878.05 525.15 878.05 522.5 878.05 519.85 876.25 518.1
M 871.95 486.75
Q 869.4 486.75 867.55 488.5 865.75 490.3 865.75 492.9 865.75 495.4 867.55 497.25 869.4 499 871.95 499 874.5 499 876.25 497.25 878.05 495.45 878.05 492.9 878.05 490.25 876.25 488.5 874.5 486.75 871.95 486.75
M 841.55 486.75
Q 839.1 486.75 837.25 488.5 835.45 490.25 835.45 492.9 835.45 495.45 837.25 497.25 839.1 499 841.55 499 844.15 499 845.95 497.25 847.75 495.3 847.75 492.9 847.75 490.4 845.95 488.5 844.15 486.75 841.55 486.75
M 817.5 492.9
Q 817.5 490.4 815.7 488.5 813.9 486.75 811.3 486.75 808.85 486.75 807 488.5 805.2 490.25 805.2 492.9 805.2 495.45 807 497.25 808.85 499 811.3 499 813.9 499 815.7 497.25 817.5 495.3 817.5 492.9
M 811.3 469.4
Q 813.95 469.4 815.7 467.65 817.5 465.7 817.5 463.25 817.5 460.85 815.7 458.9 813.95 457.15 811.3 457.15 808.75 457.15 807 458.9 805.2 460.7 805.2 463.25 805.2 465.85 807 467.65 808.75 469.4 811.3 469.4
M 841.55 457.15
Q 839 457.15 837.25 458.9 835.45 460.7 835.45 463.25 835.45 465.85 837.25 467.65 839 469.4 841.55 469.4 844.2 469.4 845.95 467.65 847.75 465.7 847.75 463.25 847.75 460.85 845.95 458.9 844.2 457.15 841.55 457.15
M 841.55 427.5
Q 839.15 427.5 837.25 429.3 835.45 431.05 835.45 433.65 835.45 436.35 837.25 438 839.05 439.8 841.55 439.8 844.15 439.8 845.95 438 847.75 436.2 847.75 433.65 847.75 431.2 845.95 429.3 844.05 427.5 841.55 427.5
M 815.7 429.3
Q 813.8 427.5 811.3 427.5 808.9 427.5 807 429.3 805.2 431.05 805.2 433.65 805.2 436.35 807 438 808.8 439.8 811.3 439.8 813.9 439.8 815.7 438 817.5 436.2 817.5 433.65 817.5 431.2 815.7 429.3 Z"/>
</g>

<path id="Layer0_0_1_STROKES" stroke="#ED485F" stroke-opacity="0.48627450980392156" stroke-width="11" stroke-linejoin="round" stroke-linecap="round" fill="none" d="
M -48.1 -465.2
L -57 -456.3 -48.15 -447.45
M -65.95 -465.2
L -57 -456.3 -65.9 -447.4
M 505.7 79.6
L 505.65 92.15 518.3 92.2
M 505.75 104.8
L 505.65 92.15 493.15 92.2
M 111.15 442.2
L 98.55 442.2 98.6 454.8
M 85.95 442.2
L 98.55 442.2 98.55 429.6"/>
</defs>

<g transform="matrix( 1, 0, 0, 1, 0,0) ">
<use xlink:href="#Layer0_0_1_STROKES"/>
</g>

<g transform="matrix( 1, 0, 0, 1, -324.05,-67.25) ">
<use xlink:href="#Layer0_1_MEMBER_0_FILL"/>
</g>
</svg>
