
<svg xmlns="http://www.w3.org/2000/svg" version="1.1" xmlns:xlink="http://www.w3.org/1999/xlink" preserveAspectRatio="none" x="0px" y="0px" width="600px" height="600px" viewBox="0 0 600 600">
<defs>
<g id="Layer0_0_FILL">
<path fill="#FAAAAA" stroke="none" d="
M 330.9 223.4
Q 338.15 220.45 333.7 214.3 330.9 208.9 309.2 207.25 282.5 208.75 250 222.8 215.35 238.25 176.95 244.05 174.9 243.7 174.45 241.55 173.7 231.15 174.75 226.9 175.7 222.6 179.1 220.45 184.95 216.9 188.5 212.25 195.9 203.65 192.8 190.5 185.95 167.5 172.1 148.4 171.5 147.45 170.85 146.85 170.05 146.1 168.9 145.9 168.65 145.85 168.35 145.85 167.25 145.75 166.35 146 165.3 146.25 164.55 146.95 163.9 147.55 163.3 148.5 149.45 167.6 142.6 190.6 139.5 203.75 146.9 212.35 150.45 217 156.3 220.55 159.7 222.7 160.65 227 161.7 231.25 160.95 241.65 160.5 243.8 158.45 244.15 120.05 238.35 85.4 222.9 52.9 208.85 26.2 207.35 4.5 209 1.7 214.4 -2.75 220.55 4.5 223.5 19.05 224.95 29.15 228.75 54.3 244.3 66.65 266.25 82.1 289.8 103 302.05
L 123.45 311.4
Q 128 313.1 127.5 316.65 126.55 321.3 121.45 327.85 117.55 332.15 112 332.5 107.6 337.9 106.5 343 100.35 343.1 96.2 344.45 85.55 348.5 83.05 353.15 80.6 357.8 81.85 361.2
L 253.55 361.1
Q 254.8 357.7 252.35 353.05 249.85 348.4 239.2 344.35 235.05 343 228.9 342.9 227.8 337.8 223.4 332.4 217.85 332.05 213.95 327.75 208.85 321.2 207.9 316.55 207.4 313 211.95 311.3
L 232.4 301.95
Q 253.3 289.7 268.75 266.15 281.1 244.2 306.25 228.65 316.35 224.85 330.9 223.4
M 162.8 197.55
Q 164.3 188.1 168.2 183.15 172.3 184.8 173.9 198.75 173.3 206.3 168.15 209.95 163.2 205.95 162.8 197.55
M 150.3 288
Q 113 279.5 100 255.05 129.1 268.9 166.85 269.1 201.8 269.4 235.05 255.95 228.95 272.6 198.65 284.5 176.25 293.25 150.3 288
M 119.4 343.3
Q 121.3 336.2 131.1 334.7
L 204.75 334.35
Q 212.45 334.45 216.6 343.5
L 119.4 343.3 Z"/>
</g>

<g id="Layer0_1_FILL">
<path fill="#FAAAAA" stroke="none" d="
M 392.1 246.9
Q 387.9333984375 239.451953125 382.9 232.3 367.7251953125 210.529296875 345.05 191.5 311.3 162 301.35 119.55 299.3380859375 114.542578125 297.05 114.8 294.483984375 113.94296875 292.3 119.45 282.344140625 161.9205078125 248.6 191.4 232.4259765625 204.9751953125 220.05 219.95 212.1669921875 229.491015625 205.8 239.6 203.5466796875 243.2134765625 201.45 246.9 198.940234375 251.4123046875 196.7 256 196.3208984375 256.8146484375 195.95 257.6 185.8857421875 283.82578125 188.2 305.1 188.3828125 310.3056640625 190.4 310.95
L 212.65 317.95
Q 217.230078125 318.705078125 217.75 315.4 215.397265625 305.03515625 215.2 288.4 218.569921875 265.402734375 229.9 246.9 232.2166015625 243.158203125 234.8 239.6 237.44921875 236.0376953125 240.4 232.65 248.2455078125 223.6787109375 258.4 216 283.8841796875 191.153125 296.35 166.6 296.590625 166.1689453125 296.8 165.75 296.8234375 165.8044921875 296.85 165.85 297.0197265625 166.189453125 297.2 166.5 309.7017578125 191.19296875 335.25 216.1 343.55390625 224.285546875 350.25 232.3 356.4703125 239.6724609375 361.3 246.9 375.75 268.3375 378.45 288.5 378.25 305.15 375.9 315.5 376.4 318.8 381 318.05
L 403.25 311.05
Q 405.25 310.4 405.45 305.2 407.75 283.95 397.7 257.7 395.1162109375 252.2244140625 392.1 246.9 Z"/>
</g>
</defs>

<g transform="matrix( 1.5902557373046875, 0, 0, 1.5902557373046875, 29.55,8.1) ">
<g transform="matrix( 1, 0, 0, 1, 0,0) ">
<use xlink:href="#Layer0_0_FILL"/>
</g>

<g transform="matrix( 1, 0, 0, 1, -128.5,-114.7) ">
<use xlink:href="#Layer0_1_FILL"/>
</g>
</g>
</svg>
